#!OML:ASF H:\ManfredETheater\Project 1\Capture day 1\Session 1\subject.ASF
:FULLY-SPECIFIED
:DEGREES
319
root 1.75767 17.9485 -28.3247 -173.214 -0.517808 -178.575
lowerback 4.36214 -0.0952173 1.16735
upperback -4.31996 -0.0722272 2.21933
thorax -6.95476 -0.10459 1.68235
lowerneck -19.8518 -3.00566 -2.90832
upperneck 20.0563 -3.3409 1.20324
head 9.70594 -1.54108 0.445937
rclavicle 5.65294e-016 -4.77083e-015
rhumerus -38.3944 -9.11449 -78.79
rradius 36.7912
rwrist 0.137893
rhand -20.6198 -11.6949
rfingers 7.12502
rthumb 5.74141 -41.5971
lclavicle 5.65294e-016 -4.77083e-015
lhumerus -37.9557 8.04895 86.4422
lradius 34.2413
lwrist -12.6258
lhand -4.1025 6.60399
lfingers 7.12502
lthumb 21.6555 35.4129
rfemur -11.0962 -0.600902 21.6813
rtibia 28.4657
rfoot -17.592 -11.4893
rtoes -27.4867
lfemur -17.7281 -5.40411 -18.0459
ltibia 38.5237
lfoot -24.0243 0.149005
ltoes 10.3425
320
root 1.74839 17.9438 -28.3622 -173.072 -0.507178 -178.586
lowerback 4.39415 -0.0814179 1.18669
upperback -4.30577 -0.0504773 2.22671
thorax -6.95869 -0.0943122 1.67705
lowerneck -19.8312 -3.00121 -2.90992
upperneck 19.9826 -3.33284 1.18457
head 9.67564 -1.54139 0.441108
rclavicle 9.64416e-016 -3.06128e-014
rhumerus -38.4007 -9.08158 -78.8126
rradius 36.7976
rwrist 0.14026
rhand -20.6705 -11.7016
rfingers 7.12502
rthumb 5.69249 -41.6051
lclavicle 9.64416e-016 -3.06128e-014
lhumerus -37.9921 8.01255 86.5057
lradius 34.3281
lwrist -12.5106
lhand -4.23694 6.60459
lfingers 7.12502
lthumb 21.5264 35.4284
rfemur -11.1252 -0.610467 21.6393
rtibia 28.4942
rfoot -17.7067 -11.5386
rtoes -27.6232
lfemur -17.7495 -5.3906 -18.0928
ltibia 38.5431
lfoot -24.154 0.157713
ltoes 10.3537
321
root 1.73896 17.9389 -28.4006 -172.929 -0.504736 -178.6
lowerback 4.42495 -0.0694996 1.20518
upperback -4.29102 -0.0313171 2.234
thorax -6.96125 -0.0852534 1.67237
lowerneck -19.8092 -2.99896 -2.91595
upperneck 19.9106 -3.32697 1.16832
head 9.64591 -1.54268 0.437571
rclavicle -3.29858e-015 3.18055e-015
rhumerus -38.4089 -9.0505 -78.8404
rradius 36.8133
rwrist 0.133234
rhand -20.7196 -11.7181
rfingers 7.12502
rthumb 5.64509 -41.6229
lclavicle -3.29858e-015 3.18055e-015
lhumerus -38.0271 7.96357 86.5664
lradius 34.4102
lwrist -12.4096
lhand -4.3355 6.60224
lfingers 7.12502
lthumb 21.4318 35.4368
rfemur -11.1521 -0.62368 21.5963
rtibia 28.5244
rfoot -17.8256 -11.5947
rtoes -27.7613
lfemur -17.7678 -5.37516 -18.1406
ltibia 38.5595
lfoot -24.2871 0.156102
ltoes 10.3565
322
root 1.72932 17.9339 -28.4399 -172.782 -0.510097 -178.621
lowerback 4.4517 -0.0594769 1.21593
upperback -4.27866 -0.0154767 2.23975
thorax -6.96394 -0.0775031 1.67073
lowerneck -19.7746 -2.9983 -2.92208
upperneck 19.8363 -3.32257 1.14888
head 9.61307 -1.54497 0.432922
rclavicle -2.73329e-016 2.3059e-014
rhumerus -38.428 -9.01882 -78.8723
rradius 36.8449
rwrist 0.112896
rhand -20.7598 -11.7347
rfingers 7.12502
rthumb 5.60623 -41.6406
lclavicle -2.73329e-016 2.3059e-014
lhumerus -38.0617 7.9033 86.6237
lradius 34.4821
lwrist -12.3253
lhand -4.39878 6.59587
lfingers 7.12502
lthumb 21.371 35.4373
rfemur -11.18 -0.640976 21.5447
rtibia 28.5555
rfoot -17.9475 -11.658
rtoes -27.9076
lfemur -17.7866 -5.35741 -18.1961
ltibia 38.572
lfoot -24.4226 0.14564
ltoes 10.348
323
root 1.71959 17.929 -28.4801 -172.628 -0.519506 -178.647
lowerback 4.47999 -0.0519692 1.21697
upperback -4.26772 -0.00363048 2.24614
thorax -6.96895 -0.0712084 1.67568
lowerneck -19.7466 -2.99662 -2.92536
upperneck 19.7672 -3.31683 1.12699
head 9.58321 -1.5466 0.427057
rclavicle 1.35422e-015 1.03368e-014
rhumerus -38.4449 -8.98612 -78.9108
rradius 36.8833
rwrist 0.0841001
rhand -20.7901 -11.7435
rfingers 7.12502
rthumb 5.57699 -41.6501
lclavicle 1.35422e-015 1.03368e-014
lhumerus -38.0928 7.83914 86.6746
lradius 34.5481
lwrist -12.2616
lhand -4.42108 6.58414
lfingers 7.12502
lthumb 21.3496 35.428
rfemur -11.2124 -0.653153 21.4883
rtibia 28.5856
rfoot -18.0693 -11.7324
rtoes -28.0555
lfemur -17.809 -5.33397 -18.2555
ltibia 38.5806
lfoot -24.56 0.126851
ltoes 10.3277
324
root 1.70941 17.9239 -28.5216 -172.471 -0.53982 -178.678
lowerback 4.49965 -0.0467761 1.21882
upperback -4.2562 0.00483904 2.25114
thorax -6.96827 -0.0666617 1.67897
lowerneck -19.7145 -2.99621 -2.93292
upperneck 19.7005 -3.31168 1.10615
head 9.55355 -1.54859 0.422251
rclavicle 4.55341e-015 -1.19271e-014
rhumerus -38.4684 -8.95037 -78.9539
rradius 36.9364
rwrist 0.0387168
rhand -20.8099 -11.7439
rfingers 7.12502
rthumb 5.55787 -41.651
lclavicle 4.55341e-015 -1.19271e-014
lhumerus -38.1224 7.7653 86.7233
lradius 34.6067
lwrist -12.2166
lhand -4.41891 6.57035
lfingers 7.12502
lthumb 21.3516 35.414
rfemur -11.2413 -0.679902 21.4259
rtibia 28.6146
rfoot -18.1952 -11.8092
rtoes -28.2236
lfemur -17.8282 -5.30883 -18.3201
ltibia 38.5846
lfoot -24.7022 0.0996002
ltoes 10.2935
325
root 1.69908 17.9186 -28.5643 -172.31 -0.564096 -178.707
lowerback 4.51484 -0.0414403 1.22125
upperback -4.24686 0.0133004 2.25814
thorax -6.96732 -0.0622198 1.68404
lowerneck -19.6698 -2.99877 -2.94598
upperneck 19.632 -3.30913 1.08575
head 9.52121 -1.55205 0.41833
rclavicle 3.11843e-015 8.74653e-015
rhumerus -38.5005 -8.91018 -79.0002
rradius 37.0017
rwrist -0.0176322
rhand -20.8185 -11.7373
rfingers 7.12502
rthumb 5.54963 -41.6447
lclavicle 3.11843e-015 8.74653e-015
lhumerus -38.1515 7.68365 86.7701
lradius 34.6562
lwrist -12.1906
lhand -4.39456 6.55022
lfingers 7.12502
lthumb 21.375 35.3912
rfemur -11.2686 -0.701764 21.3664
rtibia 28.6412
rfoot -18.3219 -11.9006
rtoes -28.4081
lfemur -17.8456 -5.28091 -18.3819
ltibia 38.5843
lfoot -24.8482 0.0716104
ltoes 10.2412
326
root 1.68851 17.9133 -28.6083 -172.142 -0.595632 -178.74
lowerback 4.52246 -0.0394921 1.21846
upperback -4.23681 0.0166097 2.26528
thorax -6.96113 -0.06005 1.69263
lowerneck -19.6297 -3.00037 -2.95657
upperneck 19.5672 -3.30523 1.06266
head 9.49091 -1.55494 0.413205
rclavicle -2.36057e-016 1.27222e-014
rhumerus -38.5339 -8.86054 -79.0571
rradius 37.081
rwrist -0.0803873
rhand -20.8214 -11.7225
rfingers 7.12502
rthumb 5.54683 -41.6299
lclavicle -2.36057e-016 1.27222e-014
lhumerus -38.1763 7.59592 86.8125
lradius 34.7012
lwrist -12.1737
lhand -4.35162 6.53332
lfingers 7.12502
lthumb 21.4163 35.3696
rfemur -11.2968 -0.728875 21.3025
rtibia 28.6652
rfoot -18.4502 -12.0002
rtoes -28.6022
lfemur -17.8642 -5.2541 -18.448
ltibia 38.5801
lfoot -24.9981 0.0441606
ltoes 10.1711
327
root 1.67749 17.9077 -28.6541 -171.97 -0.636492 -178.781
lowerback 4.52475 -0.0416122 1.21253
upperback -4.22683 0.0140351 2.27067
thorax -6.95179 -0.0606421 1.70173
lowerneck -19.5978 -3.00203 -2.96554
upperneck 19.509 -3.30123 1.03778
head 9.46437 -1.55775 0.407097
rclavicle -7.33018e-016 -2.3059e-014
rhumerus -38.564 -8.80392 -79.1238
rradius 37.1647
rwrist -0.147582
rhand -20.8221 -11.6957
rfingers 7.12502
rthumb 5.54615 -41.6031
lclavicle -7.33018e-016 -2.3059e-014
lhumerus -38.1978 7.5003 86.8506
lradius 34.7379
lwrist -12.1638
lhand -4.31531 6.5118
lfingers 7.12502
lthumb 21.4511 35.3442
rfemur -11.3194 -0.771668 21.2296
rtibia 28.6855
rfoot -18.5836 -12.1026
rtoes -28.8157
lfemur -17.8793 -5.23334 -18.5231
ltibia 38.573
lfoot -25.154 0.0210096
ltoes 10.0827
